<mxfile host="app.diagrams.net" modified="2022-01-12T09:53:11.620Z" agent="5.0 (Macintosh; Intel Mac OS X 10_15_7) AppleWebKit/537.36 (KHTML, like Gecko) Chrome/96.0.4664.110 Safari/537.36 Edg/96.0.1054.62" etag="JG6fIBAWfqtJ4k7YHAAB" version="16.2.2" type="github">
  <diagram id="PgKaXs7rVHdaOKFZjQFd" name="Page-1">
    <mxGraphModel dx="950" dy="700" grid="1" gridSize="10" guides="1" tooltips="1" connect="1" arrows="1" fold="1" page="1" pageScale="1" pageWidth="827" pageHeight="1169" math="0" shadow="0">
      <root>
        <mxCell id="0" />
        <mxCell id="1" parent="0" />
        <mxCell id="mqnWkfAjujdiSxIboMaL-3" value="" style="edgeStyle=orthogonalEdgeStyle;rounded=0;orthogonalLoop=1;jettySize=auto;html=1;" edge="1" parent="1" source="mqnWkfAjujdiSxIboMaL-1" target="mqnWkfAjujdiSxIboMaL-2">
          <mxGeometry relative="1" as="geometry" />
        </mxCell>
        <mxCell id="mqnWkfAjujdiSxIboMaL-1" value="RouterObject" style="rounded=0;whiteSpace=wrap;html=1;" vertex="1" parent="1">
          <mxGeometry x="280" y="200" width="120" height="60" as="geometry" />
        </mxCell>
        <mxCell id="mqnWkfAjujdiSxIboMaL-2" value="return Link" style="whiteSpace=wrap;html=1;rounded=0;" vertex="1" parent="1">
          <mxGeometry x="280" y="340" width="120" height="60" as="geometry" />
        </mxCell>
        <mxCell id="mqnWkfAjujdiSxIboMaL-5" value="RouterObject[]" style="rounded=0;whiteSpace=wrap;html=1;" vertex="1" parent="1">
          <mxGeometry x="280" y="70" width="120" height="50" as="geometry" />
        </mxCell>
      </root>
    </mxGraphModel>
  </diagram>
</mxfile>
